# Blender v2.80 (sub 75) OBJ File: 'AllNumbers.blend'
# www.blender.org
mtllib Four.mtl
o Four_Cube.008
v 0.150565 -0.314917 0.292158
v 0.150565 -0.314917 -0.292158
v 0.734882 -0.314917 -0.292158
v 0.734882 -0.314917 0.292158
v 0.150565 -0.899234 -0.292158
v 0.150565 -0.314917 -0.292158
v 0.734882 -0.314917 -0.292158
v 0.734882 -0.899234 -0.292158
v 0.734882 -0.899234 -0.292158
v 0.734882 -0.899234 0.292158
v 0.734882 -0.314917 0.292158
v 0.734882 -0.314917 -0.292158
v 0.734882 -0.899234 0.292158
v 0.150565 -0.899234 0.292158
v 0.150565 -0.899234 -0.292158
v 0.734882 -0.899234 -0.292158
v 0.150565 -0.899234 0.292158
v 0.150565 -0.314917 0.292158
v 0.150565 -0.314917 -0.292158
v 0.150565 -0.899234 -0.292158
v 0.734882 -0.899234 0.292158
v 0.734882 -0.314917 0.292158
v 0.150565 -0.314917 0.292158
v 0.150565 -0.899234 0.292158
v 0.734882 -0.899234 -0.292158
v 0.734882 -0.314917 -0.292158
v 0.734882 -0.314917 0.292158
v 0.734882 -0.899234 0.292158
v 0.150565 -0.314917 -0.292158
v 0.150565 -0.314917 0.292158
v -0.285921 -0.314917 0.292158
v -0.285921 -0.314917 -0.292158
v 0.734882 -0.314917 -0.292158
v 0.734882 -0.314917 0.292158
v 0.734882 0.096143 0.292158
v 0.734882 0.096143 -0.292159
v 0.734882 0.529329 -0.292159
v 0.734882 0.529329 0.292158
v 0.150565 0.096143 -0.292159
v 0.150565 0.096143 0.292158
v 0.150565 0.529329 0.292158
v 0.734882 0.999806 0.292158
v 0.150565 0.999806 0.292158
v 0.150565 0.529329 -0.292159
v 0.734882 0.999806 -0.292159
v 0.150565 0.999806 -0.292159
v -0.285921 0.096143 0.292158
v -0.684836 0.096143 0.292158
v -0.684836 -0.314917 0.292158
v -0.285921 0.096143 -0.292159
v -0.684836 -0.314917 -0.292158
v -0.684836 0.096143 -0.292159
v -0.684836 1.015161 0.292158
v -0.684836 1.015161 -0.292159
v -0.285921 1.015161 0.292158
v -0.285921 1.015161 -0.292159
vt 0.375000 0.000000
vt 0.375000 0.250000
vt 0.625000 0.250000
vt 0.625000 0.000000
vt 0.375000 0.250000
vt 0.625000 0.250000
vt 0.625000 0.500000
vt 0.375000 0.500000
vt 0.375000 0.500000
vt 0.375000 0.750000
vt 0.625000 0.750000
vt 0.625000 0.500000
vt 0.375000 0.750000
vt 0.625000 0.750000
vt 0.625000 1.000000
vt 0.375000 1.000000
vt 0.125000 0.500000
vt 0.375000 0.500000
vt 0.375000 0.750000
vt 0.125000 0.750000
vt 0.625000 0.500000
vt 0.875000 0.500000
vt 0.875000 0.750000
vt 0.625000 0.750000
vt 0.375000 0.500000
vt 0.625000 0.500000
vt 0.625000 0.750000
vt 0.375000 0.750000
vt 0.375000 0.250000
vt 0.375000 0.000000
vt 0.375000 0.000000
vt 0.375000 0.250000
vt 0.625000 0.250000
vt 0.625000 0.000000
vt 0.625000 0.000000
vt 0.625000 0.250000
vt 0.625000 0.250000
vt 0.625000 0.000000
vt 0.375000 0.250000
vt 0.375000 0.000000
vt 0.375000 0.000000
vt 0.625000 0.000000
vt 0.375000 0.000000
vt 0.375000 0.250000
vt 0.625000 0.250000
vt 0.375000 0.250000
vt 0.375000 0.000000
vt 0.375000 0.000000
vt 0.375000 0.000000
vt 0.375000 0.250000
vt 0.375000 0.250000
vt 0.375000 0.250000
vt 0.375000 0.000000
vt 0.375000 0.250000
vt 0.375000 0.000000
vt 0.375000 0.250000
vn 0.0000 -1.0000 0.0000
vn 0.0000 -0.0000 -1.0000
vn -1.0000 0.0000 0.0000
vn 0.0000 0.0000 1.0000
vn 1.0000 -0.0000 0.0000
vn 0.0000 0.0000 0.0000
vn -0.0599 0.9877 0.1445
vn 0.0000 1.0000 -0.0000
usemtl Material.007
s 1
f 1/1/1 2/2/1 3/3/1 4/4/1
f 5/5/2 6/6/2 7/7/2 8/8/2
f 9/9/3 10/10/3 11/11/3 12/12/3
f 13/13/1 14/14/1 15/15/1 16/16/1
f 17/17/3 18/18/3 19/19/3 20/20/3
f 21/21/4 22/22/4 23/23/4 24/24/4
f 25/25/5 26/26/5 27/27/5 28/28/5
f 9/9/6 12/12/6 26/26/6 25/25/6
f 10/10/6 9/9/6 25/25/6 28/28/6
f 12/12/6 11/11/6 27/27/6 26/26/6
f 11/11/6 10/10/6 28/28/6 27/27/6
f 29/29/1 30/30/1 31/31/1 32/32/1
f 4/4/6 3/3/6 33/33/6 34/34/6
f 2/2/6 1/1/6 30/30/6 29/29/7
f 1/1/6 4/4/6 34/34/6 30/30/6
f 3/3/6 2/2/6 29/29/7 33/33/6
f 35/35/5 36/36/5 37/37/5 38/38/5
f 34/34/5 33/33/5 36/36/5 35/35/5
f 33/33/6 29/29/7 39/39/2 36/36/2
f 30/30/4 34/34/4 35/35/4 40/40/4
f 41/41/4 38/38/4 42/42/4 43/43/4
f 36/36/2 39/39/2 44/44/2 37/37/2
f 40/40/4 35/35/4 38/38/4 41/41/4
f 39/39/3 40/40/3 41/41/3 44/44/3
f 43/43/8 42/42/8 45/45/8 46/46/8
f 44/44/3 41/41/3 43/43/3 46/46/3
f 38/38/5 37/37/5 45/45/5 42/42/5
f 37/37/2 44/44/2 46/46/2 45/45/2
f 31/31/4 47/47/4 48/48/4 49/49/4
f 30/30/4 40/40/4 47/47/4 31/31/4
f 39/39/2 29/29/7 32/32/2 50/50/2
f 40/40/8 39/39/8 50/50/8 47/47/8
f 51/51/3 49/49/3 48/48/3 52/52/3
f 32/32/1 31/31/1 49/49/1 51/51/1
f 50/50/2 32/32/2 51/51/2 52/52/2
f 52/52/3 48/48/3 53/53/3 54/54/3
f 55/55/8 56/56/8 54/54/8 53/53/8
f 47/47/5 50/50/5 56/56/5 55/55/5
f 48/48/4 47/47/4 55/55/4 53/53/4
f 50/50/2 52/52/2 54/54/2 56/56/2
