# Blender v2.80 (sub 75) OBJ File: 'AllNumbers.blend'
# www.blender.org
mtllib Nine.mtl
o Nine_Cube.013
v -0.221744 -0.532999 0.221744
v 0.221744 -0.532999 0.221744
v 0.221744 -0.532999 -0.221744
v -0.221744 -0.532999 -0.221744
v -0.221744 -0.976487 -0.221744
v -0.221744 -0.532999 -0.221744
v 0.221744 -0.532999 -0.221744
v 0.221744 -0.976487 -0.221744
v 0.221744 -0.976487 -0.221744
v 0.221744 -0.976486 0.221744
v 0.221744 -0.532999 0.221744
v 0.221744 -0.532999 -0.221744
v 0.221744 -0.976486 0.221744
v -0.221744 -0.976486 0.221744
v -0.221744 -0.976487 -0.221744
v 0.221744 -0.976487 -0.221744
v -0.221744 -0.976486 0.221744
v -0.221744 -0.976487 -0.221744
v -0.221744 -0.532999 -0.221744
v -0.221744 -0.532999 0.221744
v 0.221744 -0.976486 0.221744
v 0.221744 -0.532999 0.221744
v -0.221744 -0.532999 0.221744
v -0.221744 -0.976486 0.221744
v 0.221744 -0.532999 -0.221744
v 0.221744 -0.532999 0.221744
v 0.221744 -0.147654 0.221744
v 0.221744 -0.147654 -0.221744
v 0.221744 -0.976487 -0.221744
v 0.221744 -0.976486 0.221744
v 0.650198 -0.976487 -0.221744
v 0.650198 -0.532999 -0.221744
v 0.650198 -0.532999 0.221744
v 0.650198 -0.976486 0.221744
v -0.679398 -0.976486 0.221744
v -0.679398 -0.532999 0.221744
v -0.679398 -0.532999 -0.221744
v -0.679398 -0.976487 -0.221744
v 0.650198 -0.147654 0.221744
v 0.650198 -0.147654 -0.221744
v 0.650198 0.249538 -0.221744
v 0.650198 0.249538 0.221743
v 0.221744 0.249538 0.221743
v 0.650198 0.635592 0.221743
v 0.221744 0.635592 0.221743
v 0.221744 0.249538 -0.221744
v 0.650198 0.635592 -0.221744
v 0.221744 0.635592 -0.221744
v 0.221744 1.023785 -0.221744
v 0.650198 1.023785 -0.221744
v 0.221744 1.023785 0.221743
v 0.650198 1.023785 0.221743
v -0.221077 0.635592 -0.221744
v -0.221077 1.023785 -0.221744
v -0.678671 0.635592 -0.221744
v -0.678671 1.023785 -0.221744
v -0.221077 1.023785 0.221743
v -0.221077 0.635592 0.221743
v -0.678671 0.635592 0.221743
v -0.678671 1.023785 0.221743
v -0.221077 0.244441 0.221743
v -0.221077 0.244441 -0.221744
v -0.678671 0.244441 -0.221744
v -0.221077 -0.138062 -0.221744
v -0.678671 -0.138062 -0.221744
v -0.678671 0.244441 0.221743
v -0.221077 -0.138062 0.221744
v -0.678671 -0.138062 0.221744
v 0.229166 -0.138062 -0.221744
v 0.229166 -0.138062 0.221744
v 0.229166 0.244441 -0.221744
v 0.229166 0.244441 0.221743
vt 0.375000 0.000000
vt 0.625000 0.000000
vt 0.625000 0.250000
vt 0.375000 0.250000
vt 0.375000 0.250000
vt 0.625000 0.250000
vt 0.625000 0.500000
vt 0.375000 0.500000
vt 0.375000 0.500000
vt 0.375000 0.750000
vt 0.625000 0.750000
vt 0.625000 0.500000
vt 0.375000 0.750000
vt 0.625000 0.750000
vt 0.625000 1.000000
vt 0.375000 1.000000
vt 0.125000 0.500000
vt 0.125000 0.750000
vt 0.375000 0.750000
vt 0.375000 0.500000
vt 0.625000 0.500000
vt 0.875000 0.500000
vt 0.875000 0.750000
vt 0.625000 0.750000
vt 0.625000 0.500000
vt 0.625000 0.750000
vt 0.625000 0.750000
vt 0.625000 0.500000
vt 0.375000 0.500000
vt 0.375000 0.750000
vt 0.375000 0.500000
vt 0.625000 0.500000
vt 0.625000 0.750000
vt 0.375000 0.750000
vt 0.125000 0.500000
vt 0.375000 0.500000
vt 0.375000 0.750000
vt 0.125000 0.750000
vt 0.625000 0.750000
vt 0.625000 0.500000
vt 0.625000 0.500000
vt 0.625000 0.750000
vt 0.625000 0.750000
vt 0.625000 0.750000
vt 0.625000 0.750000
vt 0.625000 0.500000
vt 0.625000 0.500000
vt 0.625000 0.500000
vt 0.625000 0.500000
vt 0.625000 0.500000
vt 0.625000 0.750000
vt 0.625000 0.750000
vt 0.625000 0.500000
vt 0.625000 0.500000
vt 0.625000 0.500000
vt 0.625000 0.500000
vt 0.625000 0.750000
vt 0.625000 0.750000
vt 0.625000 0.750000
vt 0.625000 0.750000
vt 0.625000 0.750000
vt 0.625000 0.500000
vt 0.625000 0.500000
vt 0.625000 0.500000
vt 0.625000 0.500000
vt 0.625000 0.750000
vt 0.625000 0.750000
vt 0.625000 0.750000
vt 0.625000 0.500000
vt 0.625000 0.750000
vt 0.625000 0.500000
vt 0.625000 0.750000
vn 0.0000 1.0000 -0.0000
vn 0.0000 -0.0000 -1.0000
vn -1.0000 0.0000 0.0000
vn 0.0000 -1.0000 0.0000
vn 1.0000 0.0000 0.0000
vn 0.0000 0.0000 1.0000
vn 0.0000 0.0000 0.0000
vn 0.0000 0.9998 0.0189
usemtl Material.012
s 1
f 1/1/1 2/2/1 3/3/1 4/4/1
f 5/5/2 6/6/2 7/7/2 8/8/2
f 9/9/3 10/10/3 11/11/3 12/12/3
f 13/13/4 14/14/4 15/15/4 16/16/4
f 17/17/5 18/18/5 19/19/5 20/20/5
f 21/21/6 22/22/6 23/23/6 24/24/6
f 25/25/3 26/26/3 27/27/3 28/28/3
f 9/9/7 12/12/7 25/25/8 29/29/7
f 10/10/7 9/9/7 29/29/7 30/30/7
f 12/12/7 11/11/7 26/26/7 25/25/8
f 11/11/7 10/10/7 30/30/7 26/26/7
f 31/31/5 32/32/5 33/33/5 34/34/5
f 26/26/6 30/30/6 34/34/6 33/33/6
f 29/29/7 25/25/8 32/32/2 31/31/2
f 30/30/4 29/29/4 31/31/4 34/34/4
f 35/35/3 36/36/3 37/37/3 38/38/3
f 18/18/4 17/17/4 35/35/4 38/38/4
f 19/19/2 18/18/2 38/38/2 37/37/2
f 20/20/1 19/19/1 37/37/1 36/36/1
f 17/17/6 20/20/6 36/36/6 35/35/6
f 39/39/5 40/40/5 41/41/5 42/42/5
f 26/26/6 33/33/6 39/39/6 27/27/6
f 32/32/2 25/25/8 28/28/2 40/40/2
f 33/33/5 32/32/5 40/40/5 39/39/5
f 43/43/6 42/42/6 44/44/6 45/45/6
f 27/27/6 39/39/6 42/42/6 43/43/6
f 28/28/3 27/27/3 43/43/3 46/46/3
f 40/40/2 28/28/2 46/46/2 41/41/2
f 47/47/2 48/48/2 49/49/2 50/50/2
f 46/46/3 43/43/3 45/45/3 48/48/3
f 41/41/2 46/46/2 48/48/2 47/47/2
f 42/42/5 41/41/5 47/47/5 44/44/5
f 49/49/1 51/51/1 52/52/1 50/50/1
f 44/44/5 47/47/5 50/50/5 52/52/5
f 45/45/6 44/44/6 52/52/6 51/51/6
f 49/49/2 48/48/2 53/53/2 54/54/2
f 54/54/2 53/53/2 55/55/2 56/56/2
f 51/51/1 49/49/1 54/54/1 57/57/1
f 45/45/6 51/51/6 57/57/6 58/58/6
f 48/48/4 45/45/4 58/58/4 53/53/4
f 55/55/3 59/59/3 60/60/3 56/56/3
f 53/53/5 58/58/5 61/61/5 62/62/5
f 58/58/6 57/57/6 60/60/6 59/59/6
f 57/57/1 54/54/1 56/56/1 60/60/1
f 63/63/2 62/62/2 64/64/2 65/65/2
f 58/58/6 59/59/6 66/66/6 61/61/6
f 55/55/2 53/53/2 62/62/2 63/63/2
f 59/59/3 55/55/3 63/63/3 66/66/3
f 64/64/4 67/67/4 68/68/4 65/65/4
f 67/67/4 64/64/4 69/69/4 70/70/4
f 61/61/6 66/66/6 68/68/6 67/67/6
f 66/66/3 63/63/3 65/65/3 68/68/3
f 71/71/5 72/72/5 70/70/5 69/69/5
f 62/62/1 61/61/1 72/72/1 71/71/1
f 61/61/6 67/67/6 70/70/6 72/72/6
f 64/64/2 62/62/2 71/71/2 69/69/2
