# Blender v2.80 (sub 75) OBJ File: 'AllNumbers.blend'
# www.blender.org
mtllib Two.mtl
o Two_Cube.001
v -0.218877 -0.470235 0.218877
v 0.218877 -0.470235 0.218877
v 0.218877 -0.470236 -0.218878
v -0.218877 -0.470236 -0.218878
v -0.218877 -0.907991 -0.218877
v -0.218877 -0.470236 -0.218878
v 0.218877 -0.470236 -0.218878
v 0.218877 -0.907991 -0.218877
v 0.218877 -0.907991 -0.218877
v 0.218877 -0.907990 0.218878
v 0.218877 -0.470235 0.218877
v 0.218877 -0.470236 -0.218878
v 0.218877 -0.907990 0.218878
v -0.218877 -0.907990 0.218878
v -0.218877 -0.907991 -0.218877
v 0.218877 -0.907991 -0.218877
v -0.218877 -0.907990 0.218878
v -0.218877 -0.907991 -0.218877
v -0.218877 -0.470236 -0.218878
v -0.218877 -0.470235 0.218877
v 0.218877 -0.907990 0.218878
v 0.218877 -0.470235 0.218877
v -0.218877 -0.470235 0.218877
v -0.218877 -0.907990 0.218878
v 0.218877 -0.470236 -0.218878
v 0.218877 -0.470235 0.218877
v 0.619964 -0.470235 0.218877
v 0.619964 -0.470236 -0.218878
v 0.218877 -0.907991 -0.218877
v 0.218877 -0.907990 0.218878
v 0.619964 -0.907991 -0.218877
v 0.619964 -0.907990 0.218878
v -0.632410 -0.907990 0.218878
v -0.632410 -0.470235 0.218877
v -0.632410 -0.470236 -0.218878
v -0.632410 -0.907991 -0.218877
v -0.109309 0.206669 0.169916
v -0.101324 0.189785 -0.267440
v 0.233449 -0.024191 0.185086
v 0.399595 0.473577 0.164335
v -0.013691 0.487795 0.163623
v 0.241433 -0.041075 -0.252270
v 0.400321 0.472751 -0.273418
v -0.012966 0.486969 -0.274130
v -0.185787 0.587641 -0.256309
v -0.039994 0.974594 -0.260867
v -0.004626 0.966407 0.175380
v -0.757232 0.651276 -0.191757
v -0.702536 0.666141 0.242313
v -0.150419 0.579454 0.179938
v -0.516488 0.315574 -0.210596
v -0.461792 0.330439 0.223474
vt 0.375000 0.000000
vt 0.625000 0.000000
vt 0.625000 0.250000
vt 0.375000 0.250000
vt 0.375000 0.250000
vt 0.625000 0.250000
vt 0.625000 0.500000
vt 0.375000 0.500000
vt 0.375000 0.500000
vt 0.375000 0.750000
vt 0.625000 0.750000
vt 0.625000 0.500000
vt 0.375000 0.750000
vt 0.625000 0.750000
vt 0.625000 1.000000
vt 0.375000 1.000000
vt 0.125000 0.500000
vt 0.125000 0.750000
vt 0.375000 0.750000
vt 0.375000 0.500000
vt 0.625000 0.500000
vt 0.875000 0.500000
vt 0.875000 0.750000
vt 0.625000 0.750000
vt 0.625000 0.500000
vt 0.625000 0.750000
vt 0.625000 0.750000
vt 0.625000 0.500000
vt 0.375000 0.500000
vt 0.375000 0.750000
vt 0.375000 0.500000
vt 0.375000 0.750000
vt 0.125000 0.500000
vt 0.375000 0.500000
vt 0.375000 0.750000
vt 0.125000 0.750000
vt 0.375000 0.500000
vt 0.375000 0.750000
vt 0.375000 0.500000
vt 0.375000 0.500000
vt 0.375000 0.500000
vt 0.375000 0.750000
vt 0.375000 0.750000
vt 0.375000 0.750000
vt 0.375000 0.750000
vt 0.375000 0.750000
vt 0.375000 0.500000
vt 0.375000 0.750000
vt 0.375000 0.500000
vt 0.375000 0.500000
vt 0.375000 0.750000
vt 0.375000 0.500000
vn 0.0000 1.0000 -0.0000
vn 0.0000 -0.0000 -1.0000
vn -1.0000 0.0000 0.0000
vn 0.0000 -1.0000 0.0000
vn 1.0000 0.0000 0.0000
vn 0.0000 0.0000 1.0000
vn 0.0000 0.0000 0.0000
vn -0.7858 0.6182 -0.0191
vn -0.0088 0.0376 0.9993
vn 0.0019 0.0718 0.9974
vn 0.6928 -0.7209 0.0202
vn -0.0023 -0.0730 -0.9973
vn -0.0241 0.0258 -0.9994
vn -0.9529 0.3028 -0.0156
vn 0.0090 -0.0370 -0.9993
vn 0.9521 -0.3053 0.0157
vn -0.4002 0.9158 0.0344
vn 0.7618 0.6474 -0.0247
vn 0.0235 -0.0250 0.9994
vn -0.5266 -0.8500 0.0137
vn -0.8034 -0.5830 0.1212
vn 0.1115 -0.0050 0.9938
vn 0.6241 -0.7791 -0.0586
vn -0.1117 0.0050 -0.9937
usemtl Material.001
s 1
f 1/1/1 2/2/1 3/3/1 4/4/1
f 5/5/2 6/6/2 7/7/2 8/8/2
f 9/9/3 10/10/3 11/11/3 12/12/3
f 13/13/4 14/14/4 15/15/4 16/16/4
f 17/17/5 18/18/5 19/19/5 20/20/5
f 21/21/6 22/22/6 23/23/6 24/24/6
f 25/25/1 26/26/1 27/27/1 28/28/1
f 9/9/7 12/12/7 25/25/7 29/29/7
f 10/10/7 9/9/7 29/29/7 30/30/7
f 12/12/7 11/11/7 26/26/7 25/25/7
f 11/11/7 10/10/7 30/30/7 26/26/7
f 31/31/5 28/28/5 27/27/5 32/32/5
f 26/26/6 30/30/6 32/32/6 27/27/6
f 29/29/7 25/25/7 28/28/2 31/31/2
f 30/30/4 29/29/4 31/31/4 32/32/4
f 33/33/3 34/34/3 35/35/3 36/36/3
f 18/18/4 17/17/4 33/33/4 36/36/4
f 19/19/2 18/18/2 36/36/2 35/35/2
f 35/35/8 34/34/8 37/37/8 38/38/8
f 17/17/6 20/20/6 34/34/6 33/33/6
f 37/37/9 39/39/9 40/40/9 41/41/9
f 34/34/10 20/20/10 39/39/10 37/37/10
f 20/20/11 19/19/11 42/42/11 39/39/11
f 19/19/12 35/35/12 38/38/12 42/42/12
f 43/43/13 44/44/13 45/45/13 46/46/13
f 38/38/14 37/37/14 41/41/14 44/44/14
f 42/42/15 38/38/15 44/44/15 43/43/15
f 39/39/16 42/42/16 43/43/16 40/40/16
f 47/47/17 46/46/17 48/48/17 49/49/17
f 40/40/18 43/43/18 46/46/18 47/47/18
f 41/41/19 40/40/19 47/47/19 50/50/19
f 44/44/20 41/41/20 50/50/20 45/45/20
f 49/49/21 48/48/21 51/51/21 52/52/21
f 50/50/22 47/47/22 49/49/22 52/52/22
f 45/45/23 50/50/23 52/52/23 51/51/23
f 46/46/24 45/45/24 51/51/24 48/48/24
