# Blender v2.80 (sub 75) OBJ File: ''
# www.blender.org
mtllib Zero.mtl
o Cube_Cube.000
v 0.260570 -0.980879 0.260570
v 0.260570 -0.459739 0.260570
v -0.260570 -0.459739 0.260570
v -0.260570 -0.980879 0.260570
v -0.260570 -0.459739 -0.260570
v -0.260570 -0.980879 -0.260570
v -0.766721 -0.980879 -0.260570
v -0.766721 -0.459739 -0.260570
v 0.260570 -0.459739 -0.260570
v 0.260570 -0.980879 -0.260570
v 0.772643 -0.459739 -0.260570
v 0.772643 -0.980879 -0.260570
v -0.766721 -0.980879 0.260570
v -0.766721 -0.459739 0.260570
v -0.260570 0.546837 -0.260570
v -0.260570 0.546837 0.260570
v 0.772643 -0.459739 0.260570
v 0.772643 -0.980879 0.260570
v 0.772643 0.559304 0.260570
v 0.260570 0.559304 0.260570
v 0.772643 0.961057 0.260570
v 0.260570 0.961057 0.260570
v 0.772643 0.559304 -0.260570
v 0.260570 0.559304 -0.260570
v 0.260570 0.961057 -0.260570
v 0.772643 0.961057 -0.260570
v -0.761379 0.961057 -0.260570
v -0.761379 0.961057 0.260570
v -0.761379 0.559304 -0.260570
v -0.761379 0.559304 0.260570
v -0.766721 0.546837 -0.260570
v -0.766721 0.546837 0.260570
vt 0.375000 0.000000
vt 0.625000 0.000000
vt 0.625000 0.250000
vt 0.375000 0.250000
vt 0.625000 0.500000
vt 0.375000 0.500000
vt 0.375000 0.500000
vt 0.625000 0.500000
vt 0.625000 0.750000
vt 0.375000 0.750000
vt 0.625000 0.750000
vt 0.375000 0.750000
vt 0.125000 0.500000
vt 0.125000 0.750000
vt 0.875000 0.500000
vt 0.875000 0.750000
vt 0.375000 0.250000
vt 0.625000 0.250000
vt 0.125000 0.500000
vt 0.625000 0.500000
vt 0.875000 0.500000
vt 0.625000 1.000000
vt 0.375000 1.000000
vt 0.375000 0.000000
vt 0.625000 0.000000
vt 0.125000 0.750000
vt 0.625000 0.000000
vt 0.625000 0.000000
vt 0.625000 0.000000
vt 0.625000 0.000000
vt 0.625000 0.750000
vt 0.625000 1.000000
vt 0.625000 0.750000
vt 0.875000 0.750000
vt 0.625000 0.750000
vt 0.875000 0.750000
vt 0.875000 0.750000
vt 0.625000 0.750000
vt 0.625000 1.000000
vt 0.625000 0.750000
vt 0.875000 0.750000
vt 0.625000 0.750000
vt 0.875000 0.750000
vt 0.625000 0.000000
vt 0.625000 0.000000
vt 0.625000 0.500000
vt 0.875000 0.500000
vt 0.625000 0.250000
vt 0.625000 0.250000
vn 0.0000 -0.0000 1.0000
vn -0.0000 0.0000 -1.0000
vn -0.0000 -1.0000 0.0000
vn 0.0000 1.0000 0.0000
vn -1.0000 0.0000 0.0000
vn 1.0000 -0.0000 -0.0000
usemtl None.001
s 1
f 1/1/1 2/2/1 3/3/1 4/4/1
f 5/5/2 6/6/2 7/7/2 8/8/2
f 6/6/2 5/5/2 9/9/2 10/10/2
f 10/10/2 9/9/2 11/11/2 12/12/2
f 4/13/3 6/6/3 10/10/3 1/14/3
f 5/5/4 3/15/4 2/16/4 9/9/4
f 13/17/5 14/18/5 8/8/5 7/7/5
f 6/6/3 4/13/3 13/19/3 7/7/3
f 3/15/6 5/5/6 15/20/6 16/21/6
f 4/4/1 3/3/1 14/18/1 13/17/1
f 12/12/6 11/11/6 17/22/6 18/23/6
f 2/2/1 1/1/1 18/24/1 17/25/1
f 1/14/3 10/10/3 12/12/3 18/26/3
f 2/2/1 17/25/1 19/27/1 20/28/1
f 20/28/1 19/27/1 21/29/1 22/30/1
f 17/22/6 11/11/6 23/31/6 19/32/6
f 11/11/2 9/9/2 24/33/2 23/31/2
f 9/9/5 2/16/5 20/34/5 24/33/5
f 25/35/4 22/36/4 21/37/4 26/38/4
f 19/32/6 23/31/6 26/38/6 21/39/6
f 23/31/2 24/33/2 25/35/2 26/38/2
f 22/36/4 25/35/4 27/40/4 28/41/4
f 29/42/5 30/43/5 28/41/5 27/40/5
f 25/35/2 24/33/2 29/42/2 27/40/2
f 20/28/1 22/30/1 28/44/1 30/45/1
f 24/33/3 20/34/3 30/43/3 29/42/3
f 16/21/4 15/20/4 31/46/4 32/47/4
f 8/8/5 14/18/5 32/48/5 31/46/5
f 14/18/1 3/3/1 16/49/1 32/48/1
f 5/5/2 8/8/2 31/46/2 15/20/2
