# Blender v2.80 (sub 75) OBJ File: 'Arena.blend'
# www.blender.org
mtllib Arena.mtl
o Cube
v 11.114040 -1.821175 -11.114040
v 13.483284 -3.724451 -13.483284
v 11.114040 -1.821175 11.114040
v 13.483284 -3.724451 13.483284
v -11.114040 -1.821175 -11.114040
v -13.483284 -3.724451 -13.483284
v -11.114040 -1.821175 11.114040
v -13.483284 -3.724451 13.483284
v -13.483284 -3.724451 -0.000000
v 0.000000 -3.724451 -13.483284
v 13.483284 0.772615 -13.483284
v -13.483284 0.772615 13.483284
v 13.483284 0.772615 13.483284
v -13.483284 0.772615 -13.483284
v 0.000000 -1.821175 11.114040
v 11.114040 -1.821175 -0.000000
v 0.000000 -3.724451 13.483284
v -11.114040 -1.821175 -0.000000
v 0.000000 -1.821175 -11.114040
v 13.483284 -3.511055 -0.000000
v 0.000000 0.772615 -13.483284
v 0.000000 -3.138929 -0.000000
v -13.483284 0.772615 -0.000000
v 0.000000 0.772615 13.483284
v 0.000000 -2.176007 -0.000000
v 13.483284 -3.511055 10.165486
v 13.483284 -3.511055 -10.288628
vt 0.500000 0.125000
vt 0.500000 0.250000
vt 0.625000 0.250000
vt 0.625000 0.125000
vt 0.500000 0.375000
vt 0.500000 0.500000
vt 0.625000 0.500000
vt 0.625000 0.375000
vt 0.500000 0.625000
vt 0.500000 0.750000
vt 0.625000 0.750000
vt 0.625000 0.625000
vt 0.500000 0.875000
vt 0.500000 1.000000
vt 0.625000 1.000000
vt 0.625000 0.969771
vt 0.625000 0.875000
vt 0.250000 0.625000
vt 0.250000 0.718712
vt 0.375000 0.750000
vt 0.375000 0.625000
vt 0.750000 0.625000
vt 0.750000 0.750000
vt 0.875000 0.750000
vt 0.875000 0.625000
vt 0.625000 0.625000
vt 0.625000 0.750000
vt 0.625000 0.500000
vt 0.750000 0.500000
vt 0.875000 0.500000
vt 0.125000 0.500000
vt 0.125000 0.529376
vt 0.250000 0.500000
vt 0.250000 0.529858
vt 0.375000 0.500000
vt 0.375000 0.875000
vt 0.375000 1.000000
vt 0.375000 0.750000
vt 0.500000 0.750000
vt 0.625000 0.779376
vt 0.375000 0.625000
vt 0.375000 0.500000
vt 0.375000 0.375000
vt 0.375000 0.250000
vt 0.500000 0.250000
vt 0.625000 0.250000
vt 0.375000 0.125000
vt 0.375000 0.250000
vt 0.375000 0.000000
vt 0.500000 0.000000
vt 0.625000 0.000000
vt 0.250000 0.750000
vt 0.125000 0.750000
vn -0.0160 -0.9997 0.0160
vn 0.0000 -0.6744 0.7383
vn -0.7383 -0.6744 0.0000
vn 0.0078 0.9995 0.0296
vn -0.5807 -0.8141 0.0000
vn 0.0000 -0.6744 -0.7383
vn 0.0000 0.0000 1.0000
vn -1.0000 0.0000 0.0000
vn -0.1456 -0.5915 -0.7931
vn -0.0217 0.9995 0.0217
vn -0.0217 0.9995 -0.0217
vn 0.0078 0.9995 -0.0296
vn 1.0000 0.0000 0.0000
vn 0.0000 0.0000 -1.0000
vn 0.0160 -0.9997 0.0160
vn 0.0160 -0.9997 -0.0160
vn -0.0160 -0.9997 -0.0160
vn -0.1194 -0.6080 0.7849
usemtl Material
s off
f 25/1/1 15/2/1 7/3/1 18/4/1
f 24/5/2 12/6/2 7/7/2 15/8/2
f 23/9/3 14/10/3 5/11/3 18/12/3
f 22/13/4 17/14/4 4/15/4 26/16/4 20/17/4
f 20/18/5 26/19/5 3/20/5 16/21/5
f 21/22/6 11/23/6 1/24/6 19/25/6
f 10/26/7 2/27/7 11/23/7 21/22/7
f 6/28/7 10/26/7 21/22/7 14/29/7
f 14/29/6 21/22/6 19/25/6 5/30/6
f 2/31/8 27/32/8 11/33/8
f 11/33/9 27/34/9 1/35/9
f 9/36/10 8/37/10 17/14/10 22/13/10
f 6/38/11 9/36/11 22/13/11 10/39/11
f 10/39/12 22/13/12 20/17/12 27/40/12 2/27/12
f 9/41/13 6/38/13 14/10/13 23/9/13
f 8/42/13 9/41/13 23/9/13 12/6/13
f 12/6/3 23/9/3 18/12/3 7/7/3
f 17/43/14 8/42/14 12/6/14 24/5/14
f 4/44/14 17/43/14 24/5/14 13/45/14
f 13/45/2 24/5/2 15/8/2 3/46/2
f 16/47/15 3/48/15 15/2/15 25/1/15
f 1/49/16 16/47/16 25/1/16 19/50/16
f 19/50/17 25/1/17 18/4/17 5/51/17
f 26/19/18 13/52/18 3/20/18
f 26/19/8 4/53/8 13/52/8
f 27/34/5 20/18/5 16/21/5 1/35/5
